<svg width="16" height="16" viewBox="0 0 16 16" fill="none" xmlns="http://www.w3.org/2000/svg">
<path d="M9.77878 1.03226C12.6328 1.03226 14.946 3.34571 14.946 6.20002M9.77878 3.68778C11.1657 3.68778 12.2908 4.81225 12.2908 6.20002M6.19271 9.76397C6.86777 10.4113 7.6591 10.938 8.53367 11.3115L8.92296 11.4773L10.1193 10.2621C10.4163 9.96051 10.8461 9.82998 11.2609 9.917L14.1592 10.5239C14.6497 10.6281 15 11.061 15 11.5621V13.649C15 14.3954 14.3954 15 13.6491 15H13.0078C10.0571 15 7.1453 14.0226 4.9431 12.0587C4.76159 11.8974 4.58532 11.7301 4.41355 11.5591L4.44131 11.5868C4.26954 11.415 4.10303 11.2388 3.94176 11.0572C1.97734 8.85554 1 5.94347 1 2.99239V2.35102C1 1.60462 1.60455 1 2.35087 1H4.43756C4.9386 1 5.37139 1.35032 5.47565 1.84092L6.0832 4.73948C6.16946 5.15357 6.0397 5.58415 5.73817 5.88121L4.52306 7.07769L4.68883 7.46702C5.06236 8.34094 5.54466 9.08884 6.19271 9.76397Z" stroke="#344054" stroke-width="1.5" stroke-miterlimit="10" stroke-linecap="round" stroke-linejoin="round"/>
</svg>
