<svg width="16" height="16" viewBox="0 0 16 16" fill="none" xmlns="http://www.w3.org/2000/svg">
<path d="M14.665 8.00002C14.665 11.681 11.6809 14.665 7.99996 14.665M14.665 8.00002C14.665 4.31904 11.6809 1.33502 7.99996 1.33502M14.665 8.00002H1.33496M7.99996 14.665C4.31898 14.665 1.33496 11.681 1.33496 8.00002M7.99996 14.665C9.49527 14.665 10.7075 11.681 10.7075 8.00002C10.7075 4.31904 9.49527 1.33502 7.99996 1.33502M7.99996 14.665C6.50465 14.665 5.29246 11.681 5.29246 8.00002C5.29246 4.31904 6.50465 1.33502 7.99996 1.33502M1.33496 8.00002C1.33496 4.31904 4.31898 1.33502 7.99996 1.33502" stroke="#344054" stroke-width="1.5" stroke-miterlimit="10" stroke-linecap="round" stroke-linejoin="round"/>
</svg>
